<?xml version="1.0" encoding="utf-8" ?>
<svg baseProfile="full" height="200mm" version="1.1" viewBox="0,0,200,200" width="200mm" xmlns="http://www.w3.org/2000/svg" xmlns:ev="http://www.w3.org/2001/xml-events" xmlns:xlink="http://www.w3.org/1999/xlink"><defs /><rect fill="#1a1a1a" height="200" width="200" x="0" y="0" /><text alignment-baseline="middle" fill="#e1ed5e" style="dominant-baseline: central; font-size:9.0px; font-family:Arial;" text-anchor="middle" x="100.0" y="100.0">2024</text><line stroke="#e1ed5e" stroke-width="0.3" x1="100.0" x2="100.0" y1="15.0" y2="10.0" /><path d="M 100.0 14.0 a86.0,86.0 0 0,1 42.35913384403234,11.155469271406648" fill="none" id="id13" stroke="none" /><text fill="#e1ed5e" style="font-size:6.75px; font-family:Arial;" text-anchor="middle"><textPath startOffset="22.145653131862478" xlink:href="#id13">January</textPath></text><line stroke="#e1ed5e" stroke-width="0.3" x1="143.13028292997686" x2="145.6673583964461" y1="26.7553504044142" y2="22.446841604673864" /><path d="M 143.63769802327073 25.89364864446614 a86.0,86.0 0 0,1 29.32050498858742,28.57503671076993" fill="none" id="id14" stroke="none" /><text fill="#e1ed5e" style="font-size:6.75px; font-family:Arial;" text-anchor="middle"><textPath startOffset="20.669276256404974" xlink:href="#id14">February</textPath></text><line stroke="#e1ed5e" stroke-width="0.3" x1="172.87174338648825" x2="177.1583165268699" y1="56.24261187166439" y2="53.66864786411523" /><path d="M 173.72905801456457 55.72781907015455 a86.0,86.0 0 0,1 12.242430191666344,42.057860355516425" fill="none" id="id15" stroke="none" /><text fill="#e1ed5e" style="font-size:6.75px; font-family:Arial;" text-anchor="middle"><textPath startOffset="22.145653131862474" xlink:href="#id15">March</textPath></text><line stroke="#e1ed5e" stroke-width="0.3" x1="184.99686870605535" x2="189.99668451229388" y1="99.2704041080226" y2="99.22748670261217" /><path d="M 185.99683186730306 99.26182062694052 a86.0,86.0 0 0,1 -10.086455211305974,41.156179273409016" fill="none" id="id16" stroke="none" /><text fill="#e1ed5e" style="font-size:6.75px; font-family:Arial;" text-anchor="middle"><textPath startOffset="21.40746469413373" xlink:href="#id16">April</textPath></text><path d="M 120.05942366710727 106.21446072829308 l 12.593915261849643 3.9016271408909207 a34.18443764326663,34.18443764326663 0 0,0 -0.17846764461972597,0.5590473548830334 l -12.525082901452663 -4.117243529465338" fill="#ff960d" stroke="none" /><path d="M 119.94978838288452 106.5578916946017 l 47.667883639593434 15.669380156810009 a71.17725186951205,71.17725186951205 0 0,0 -0.3915242973021086,1.1574720156652045 l -47.39187392071896 -16.485353846949373" fill="#3dffaa" stroke="none" /><path d="M 119.71291397450082 107.23885506374661 l 7.591950593859764 2.78786941753838 a29.08764055264905,29.08764055264905 0 0,0 -0.17614549326341553,0.46724684822472523 l -7.542974416781908 -2.917784545957264" fill="#ff4e07" stroke="none" /><path d="M 119.58574465831526 107.57618678355244 l 29.96140290196798 11.589714286722726 a53.124867954622324,53.124867954622324 0 0,0 -0.3363090637208175,0.8477185339170316 l -29.75803516328104 -12.102333837853323" fill="#80ff26" stroke="none" /><path d="M 119.31412917781788 108.2440532568976 l 19.22227656286623 8.20484683746885 a41.900129853320024,41.900129853320024 0 0,0 -0.28804567094804084,0.6591048653270989 l -19.078597009901223 -8.533613772571794" fill="#fffa17" stroke="none" /><path d="M 119.16976305983485 108.57439118712176 l 16.64208627589831 7.443793512417669 a39.23099277247277,39.23099277247277 0 0,0 -0.28025039881094904,0.6123976985463087 l -16.511851412232303 -7.728380193178666" fill="#ffd814" stroke="none" /><path d="M 118.5362547648365 109.86951160357373 l 6.81651476260312 3.6294101693652725 a28.7225314299314,28.7225314299314 0 0,0 -0.2354627312610609,0.43322490480021725 l -6.75320668172672 -3.745889907640093" fill="#ff4906" stroke="none" /><line stroke="#e1ed5e" stroke-width="0.3" x1="174.33088141563837" x2="178.70328620479359" y1="141.23008692659167" y2="143.65538615756765" /><path d="M 175.20536237346943 141.71514677278685 a86.0,86.0 0 0,1 -30.301960400862466,31.631185727798858" fill="none" id="id17" stroke="none" /><text fill="#e1ed5e" style="font-size:6.75px; font-family:Arial;" text-anchor="middle"><textPath startOffset="22.145653131862474" xlink:href="#id17">May</textPath></text><path d="M 118.36410011445183 110.18625677009912 l 24.567842946674116 13.62736834272378 a49.09420002421702,49.09420002421702 0 0,0 -0.4151186616794087,0.7334748992855987 l -24.33029091997333 -14.047100012108501" fill="#adff20" stroke="none" /><path d="M 117.81537515405839 111.11811171558189 l 13.698887702959677 8.549119092000769 a37.14766117886773,37.14766117886773 0 0,0 -0.3422578683612687,0.5380862165848347 l -13.55011214297252 -8.783018983264276" fill="#ffbd11" stroke="none" /><path d="M 117.62189284568427 111.42229804090321 l 22.12204194830907 14.339240319965613 a47.36282520741041,47.36282520741041 0 0,0 -0.448087422494372,0.6784614686237612 l -21.872630086893974 -14.716881666928435" fill="#c1ff1e" stroke="none" /><path d="M 117.423217284605 111.72311816256416 l 6.548847157955192 4.406356633634881 a28.893248879962922,28.893248879962922 0 0,0 -0.2804162218326521,0.40913564799415847 l -6.47224119930722 -4.518127016699084" fill="#ff4c07" stroke="none" /><path d="M 117.01052211995028 112.31430620078461 l 22.35535500621221 16.183553028679455 a48.598356583062284,48.598356583062284 0 0,0 -0.49500430117438077,0.671568402871714 l -22.074248685454002 -16.564927740820046" fill="#b3ff20" stroke="none" /><path d="M 116.57777611688842 112.89097897827486 l 7.364654942086642 5.726800227683757 a30.329222007423766,30.329222007423766 0 0,0 -0.32312690931359145,0.40826029419440873 l -7.265261602131489 -5.852380465792849" fill="#ff6008" stroke="none" /><path d="M 116.35404254752997 113.17365903436017 l 20.50685946943481 16.51887438416114 a47.33257481179619,47.33257481179619 0 0,0 -0.5151433584219828,0.6283911361363889 l -20.2202692917742 -16.868467801996022" fill="#c2ff1e" stroke="none" /><path d="M 115.89218393027572 113.72728997021213 l 20.42717718095427 17.64450912889696 a47.992559530022845,47.992559530022845 0 0,0 -0.5438903895454468,0.6188474227209905 l -20.12127572745024 -17.992568829429246" fill="#baff1f" stroke="none" /><path d="M 115.6541949942343 113.99807769240083 l 4.90114785175285 4.382636631014803 a27.57485772501994,27.57485772501994 0 0,0 -0.3185582801451375,0.35015135307648004 l -4.825191870765833 -4.466125559648955" fill="#ff3905" stroke="none" /><path d="M 115.41159269507618 114.26474011684316 l 2.9439558323336232 2.7248815676994007 a25.011465505363233,25.011465505363233 0 0,0 -0.2943541804455852,0.31259393910410493 l -2.8967458181517785 -2.775016966748003" fill="#ff1302" stroke="none" /><path d="M 115.16444852881244 114.52719865689866 l 7.200075425379883 6.897509385218565 a30.970793441363504,30.970793441363504 0 0,0 -0.3710790670799559,0.3807598131055908 l -7.08060955714912 -7.0200918903918925" fill="#ff6909" stroke="none" /><path d="M 114.91283532996324 114.78537596483092 l 3.995440121827265 3.961291266154654 a26.626310537325523,26.626310537325523 0 0,0 -0.32459764927066626,0.3218233270586876 l -3.926850552426634 -4.029294603442003" fill="#ff2b04" stroke="none" /><path d="M 114.39649973595853 115.28858382429668 l 5.890157505091171 6.2551431533021065 a29.59190149519209,29.59190149519209 0 0,0 -0.37281600694464406,0.34507293020815455 l -5.7819117268325595 -6.355333829642641" fill="#ff5607" stroke="none" /><path d="M 113.86319453409587 115.77377054828091 l 9.964614243155852 11.337901829704304 a36.09442131765629,36.09442131765629 0 0,0 -0.4689189905496031,0.4050410556569658 l -9.768515772843394 -11.507287017825988" fill="#ffaf10" stroke="none" /><path d="M 113.31354834802062 116.24036423190432 l 19.415408361404815 23.683641299673038 a51.62471137907566,51.62471137907566 0 0,0 -0.6901713309670439,0.555953169561955 l -19.00598626008252 -24.013442763028394" fill="#90ff24" stroke="none" /><path d="M 113.03279911837588 116.46651593811092 l 5.758133250007563 7.275213258012054 a30.27819090525718,30.27819090525718 0 0,0 -0.41032723933677123,0.3190729431503942 l -5.632396066035561 -7.3729872527832425" fill="#ff5f08" stroke="none" /><path d="M 112.16784306229584 117.11559508785304 l 10.869928286522578 15.289915413407495 a39.759980125343944,39.759980125343944 0 0,0 -0.559678347613594,0.39069895344523986 l -10.605854847735225 -15.474259182657857" fill="#ffdf14" stroke="none" /><path d="M 111.5731344415666 117.5232005979908 l 5.694973130011283 8.622915171444818 a31.33379818873408,31.33379818873408 0 0,0 -0.45137734038339744,0.29257733865020613 l -5.546110157370875 -8.71940635179892" fill="#ff6e0a" stroke="none" /><line stroke="#e1ed5e" stroke-width="0.3" x1="143.1302829299769" x2="145.66735839644613" y1="173.24464959558577" y2="177.55315839532614" /><path d="M 143.63769802327073 174.10635135553383 a86.0,86.0 0 0,1 -40.68552437913181,11.842963189579606" fill="none" id="id18" stroke="none" /><text fill="#e1ed5e" style="font-size:6.75px; font-family:Arial;" text-anchor="middle"><textPath startOffset="21.407464694133747" xlink:href="#id18">June</textPath></text><path d="M 110.34350942703117 118.27599006163325 l 2.738319319004559 4.838347855991652 a26.559496620055867,26.559496620055867 0 0,0 -0.3987159842438656,0.22116103531011633 l -2.6548591466045988 -4.884641806734913" fill="#ff2a04" stroke="none" /><path d="M 110.02825361518725 118.45085714620011 l 8.807072840631257 16.204022065474245 a39.44274554177227,39.44274554177227 0 0,0 -0.5976725127369992,0.3182269489942963 l -8.527611512107704 -16.35281948219111" fill="#ffdb14" stroke="none" /><path d="M 109.71004243097381 118.62028667847754 l 13.003537225902255 24.93599721131926 a49.12287213832093,49.12287213832093 0 0,0 -0.7510484302313886,0.3834906799080807 l -12.573561573957283 -25.155545842900178" fill="#adff20" stroke="none" /><path d="M 109.3889696526874 118.78422872680471 l 5.864925753251981 11.733780264512767 a34.117886772915355,34.117886772915355 0 0,0 -0.5261299022974213,0.2573564999192887 l -5.66263560169249 -11.83273051452928" fill="#ff950d" stroke="none" /><path d="M 109.06512990194946 118.94263497670748 l 5.418502642466541 11.322586525152351 a33.55233589838873,33.55233589838873 0 0,0 -0.5216769688951494,0.24417116245728732 l -5.223336959699885 -11.413933919180172" fill="#ff8d0d" stroke="none" /><path d="M 108.07796709384702 119.3841803445677 l 2.888324942616482 6.930928404503759 a28.508674285284823,28.508674285284823 0 0,0 -0.45334974261646016,0.1843733936177116 l -2.768920738809581 -6.979489054700762" fill="#ff4606" stroke="none" /><path d="M 107.06938296918513 119.77432235084164 l 5.150857848838546 14.407866136305362 a36.30091314858811,36.30091314858811 0 0,0 -0.5885833998375821,0.20473985964334476 l -4.902768676955943 -14.494164428517298" fill="#ffb210" stroke="none" /><path d="M 106.72888874123015 119.89276391827305 l 2.0055095224090516 5.928932547313653 a27.258938376040184,27.258938376040184 0 0,0 -0.44455078998358855,0.14613267456827345 l -1.9034359947777286 -5.962486143283946" fill="#ff3404" stroke="none" /><path d="M 106.38641147887787 120.00534299687104 l 2.935870429870667 9.196572306401649 a30.653821904710213,30.653821904710213 0 0,0 -0.5026633671986642,0.15572639607437685 l -2.7775664298003786 -9.24561529028267" fill="#ff6509" stroke="none" /><path d="M 105.69591212413111 120.21278271476187 l 1.9063270221584767 6.764882084280096 a28.02835061231477,28.02835061231477 0 0,0 -0.46422769733745256,0.12652732323819876 l -1.789917923886329 -6.796609901662436" fill="#ff3f05" stroke="none" /><path d="M 105.3480935250658 120.30758222061773 l 2.7991960945241314 10.629003508400949 a31.991415484695263,31.991415484695263 0 0,0 -0.5322681539323612,0.1353004833111792 l -2.6163226473663728 -10.675489223547398" fill="#ff770b" stroke="none" /><path d="M 104.9986988182912 120.39639698878246 l 3.8116223802423828 15.552720030715516 a37.01298115665488,37.01298115665488 0 0,0 -0.6184126181953302,0.14594369404383933 l -3.544077608307173 -15.61585986840558" fill="#ffbb11" stroke="none" /><path d="M 103.94208987418118 120.62667999033965 l 3.554779103748663 18.600106377483414 a39.93674765449831,39.93674765449831 0 0,0 -0.674484630856516,0.1229135680072646 l -3.2349597393410896 -18.658388119422042" fill="#ffe215" stroke="none" /><path d="M 103.2317021107853 120.74984581791261 l 2.8949992879560655 18.58797216104115 a39.81206341518407,39.81206341518407 0 0,0 -0.6761887387690908,0.09937645876098947 l -2.5754854435792893 -18.63492969310102" fill="#ffe015" stroke="none" /><path d="M 102.15924093988457 120.88869738790638 l 0.7711027410671641 7.459719531808351 a28.499467643141365,28.499467643141365 0 0,0 -0.4870700657341936,0.046126041629866416 l -0.6429331119479552 -7.471857328943401" fill="#ff4606" stroke="none" /><path d="M 100.72087961077811 120.9876233191556 l 0.6412581129809687 18.6695302854663 a39.68053995599183,39.68053995599183 0 0,0 -0.6809684900296823,0.01753933274163548 l -0.3206763088805425 -18.67778733555798" fill="#ffde14" stroke="none" /><line stroke="#e1ed5e" stroke-width="0.3" x1="101.45913802915013" x2="101.54496967792366" y1="184.9874750549273" y2="189.98673829345242" /><path d="M 101.47630435890484 185.9873277026323 a86.0,86.0 0 0,1 -42.54439059252881,-10.42667462771756" fill="none" id="id19" stroke="none" /><text fill="#e1ed5e" style="font-size:6.75px; font-family:Arial;" text-anchor="middle"><textPath startOffset="22.145653131862474" xlink:href="#id19">July</textPath></text><path d="M 98.91894614982273 120.97215588758144 l -0.5497779088671493 10.665544557673744 a31.67970488640966,31.67970488640966 0 0,0 -0.5428628917215168,-0.032657283518486555 l 0.7327851527211124 -10.654535296330566" fill="#ff730a" stroke="none" /><path d="M 97.12497278360702 120.80226474461374 l -1.8101792021577319 13.097554967052453 a34.22205335259561,34.22205335259561 0 0,0 -0.581245107877391,-0.08542301458340212 l 2.034749415642808 -13.064550879170168" fill="#ff960d" stroke="none" /><path d="M 96.76829788921471 120.74984581791261 l -2.0333326001738428 13.055453907504573 a34.21284671045215,34.21284671045215 0 0,0 -0.5795371075954676,-0.09536261051509874 l 2.2571472108223736 -13.018625298493806" fill="#ff960d" stroke="none" /><path d="M 96.41257539226777 120.69131181640829 l -2.2318930453339774 12.872965982990054 a34.065014342320076,34.065014342320076 0 0,0 -0.5753179708717147,-0.10484209914277882 l 2.4525457497567493 -12.83275570991591" fill="#ff940d" stroke="none" /><path d="M 95.70440661134978 120.55596938700252 l -6.762114607353124 32.3591663092282 a54.058158421050436,54.058158421050436 0 0,0 -0.906729289726223,-0.1976174284743083 l 7.316606313698483 -32.23831742262017" fill="#75ff27" stroke="none" /><path d="M 95.35216902796893 120.47920084513623 l -2.5512119075750057 11.241110394963469 a32.526979010526055,32.526979010526055 0 0,0 -0.5434605271795786,-0.12825520464808443 l 2.743804588494472 -11.195659046669157" fill="#ff7f0b" stroke="none" /><path d="M 94.6519064749342 120.30758222061772 l -3.8493384417243335 14.61656504956867 a36.11493897729029,36.11493897729029 0 0,0 -0.5981641657338135,-0.1630323032886428 l 4.099684008392842 -14.548332252135884" fill="#ffb010" stroke="none" /><path d="M 94.30408787586889 120.21278271476187 l -1.4882321701861487 5.281210950858885 a26.486895670581752,26.486895670581752 0 0,0 -0.43657970187927814,-0.12708198843630963 l 1.5786718844470335 -5.254885268120059" fill="#ff2904" stroke="none" /><path d="M 93.95794788825049 120.11202640906438 l -16.903800057109393 56.26725272710173 a79.75152922117235,79.75152922117235 0 0,0 -1.307770768101063,-0.4051507269024955 l 17.86721145808209 -55.96878541239258" fill="#48fbff" stroke="none" /><path d="M 93.61358852112213 120.00534299687104 l -1.7559225050588851 5.500402237752485 a26.773879858539214,26.773879858539214 0 0,0 -0.43664024173813,-0.14353232023653895 l 1.8500854844447587 -5.4694489961139245" fill="#ff2d04" stroke="none" /><path d="M 93.27111125876986 119.89276391827306 l -4.219543486208359 12.474330553232582 a34.168654828163554,34.168654828163554 0 0,0 -0.5540109402845566,-0.19271376356526146 l 4.4330601985379365 -12.40005835709873" fill="#ff950d" stroke="none" /><path d="M 92.59220618246901 119.65005319985036 l -3.6811787382402086 9.764763953525835 a31.435597346148867,31.435597346148867 0 0,0 -0.5033104653742896,-0.1946913003470303 l 3.8482614661080263 -9.700132765040765" fill="#ff700a" stroke="none" /><path d="M 92.25597844496254 119.51999308798841 l -7.3633212248133235 18.56037956396147 a40.967628527647065,40.967628527647065 0 0,0 -0.6514741324959507,-0.2649488581800113 l 7.680849818499715 -18.431243449202167" fill="#ffef16" stroke="none" /><path d="M 91.92203290615298 119.3841803445677 l -9.003640919386921 21.605460546139554 a44.4064408916873,44.4064408916873 0 0,0 -0.701124677914333,-0.29926843355119137 l 9.373200672471686 -21.44771746292896" fill="#e5ff1a" stroke="none" /><path d="M 91.59046798132341 119.24265499422711 l -9.496867679163845 21.730691775727937 a44.71525797387068,44.71525797387068 0 0,0 -0.7007234327168348,-0.31342467861199824 l 9.868504514736316 -21.564463346206086" fill="#e1ff1b" stroke="none" /><line stroke="#e1ed5e" stroke-width="0.3" x1="58.13341422392154" x2="55.67067388415222" y1="173.97424548756322" y2="178.32567169271397" /><path d="M 57.64086615596768 174.84453072859336 a86.0,86.0 0 0,1 -31.369924170532247,-30.572349798747897" fill="none" id="id20" stroke="none" /><text fill="#e1ed5e" style="font-size:6.75px; font-family:Arial;" text-anchor="middle"><textPath startOffset="22.145653131862474" xlink:href="#id20">August</textPath></text><path d="M 89.34428304082925 118.09573695890944 l -11.739303192800687 19.935903278190942 a44.135502565751295,44.135502565751295 0 0,0 -0.6495637198071119,-0.39004435026259415 l 12.079799669165226 -19.731444927392428" fill="#e8ff1a" stroke="none" /><path d="M 89.03521579738668 117.91015095944536 l -11.54648761127719 18.86031976078945 a43.11409138166438,43.11409138166438 0 0,0 -0.6278969380548224,-0.39185412840295564 l 11.868548678121725 -18.65932983554495" fill="#f4ff19" stroke="none" /><path d="M 88.72937992617639 117.7192867562869 l -12.796218013595418 20.117780112690696 a44.84257268236876,44.84257268236876 0 0,0 -0.6459772629988513,-0.4187146573999795 l 13.139680908851277 -19.895151613586822" fill="#dfff1b" stroke="none" /><path d="M 88.1277618465304 117.32195027204791 l -13.503660276420385 19.702243905073953 a44.88571237698381,44.88571237698381 0 0,0 -0.6318303292761376,-0.4410666402509759 l 13.839885696870288 -19.46753244901785" fill="#dfff1b" stroke="none" /><path d="M 87.83215693770417 117.11559508785305 l -6.782616992604123 9.54060021049451 a32.7058509150275,32.7058509150275 0 0,0 -0.45479664471744885,-0.32923769785830176 l 6.945394647695527 -9.422761741263143" fill="#ff810b" stroke="none" /><path d="M 86.96720088162412 116.46651593811092 l -6.261431186324571 7.911113759102189 a31.08916455463652,31.08916455463652 0 0,0 -0.4156313809053667,-0.3348032194556415 l 6.396313337585199 -7.802462245853137" fill="#ff6b09" stroke="none" /><path d="M 86.40962598614128 116.0094264158162 l -9.080261250256463 10.696524920809967 a35.03092262662786,35.03092262662786 0 0,0 -0.45510259692302485,-0.39310678391138937 l 9.26254332694235 -10.539074004433855" fill="#ffa10e" stroke="none" /><path d="M 86.13680546590413 115.77377054828092 l -5.676824220117594 6.459183882244981 a29.599266808906854,29.599266808906854 0 0,0 -0.37877896056854626,-0.3387064822073691 l 5.786868207509511 -6.36078187015423" fill="#ff5607" stroke="none" /><path d="M 85.60350026404147 115.28858382429668 l -14.513594785606115 15.412934709218792 a42.170805132337655,42.170805132337655 0 0,0 -0.5227724223409382,-0.5008041550120046 l 14.776039693812368 -15.161518423901205" fill="#fffe18" stroke="none" /><path d="M 85.08716467003676 114.78537596483092 l -10.08452150249973 9.998329528945963 a35.200850935904235,35.200850935904235 0 0,0 -0.4217618431522089,-0.4327648062646012 l 10.254670146802747 -9.823742030613623" fill="#ffa30f" stroke="none" /><line stroke="#e1ed5e" stroke-width="0.3" x1="26.387840678322732" x2="22.057713659400548" y1="142.50000000000003" y2="145.00000000000006" /><path d="M 25.521815274538298 143.00000000000003 a86.0,86.0 0 0,1 -11.493303480769221,-40.785679425670985" fill="none" id="id21" stroke="none" /><text fill="#e1ed5e" style="font-size:6.75px; font-family:Arial;" text-anchor="middle"><textPath startOffset="21.40746469413373" xlink:href="#id21">September</textPath></text><path d="M 81.1358732173502 109.22738970284198 l -13.193649083336208 6.4536749088465335 a35.687487734915514,35.687487734915514 0 0,0 -0.2644625391835282,-0.5526249925761638 l 13.302490880479649 -6.226237414205265" fill="#ffaa0f" stroke="none" /><path d="M 80.9802524753101 108.90220220490708 l -13.037565566003439 6.102238990167075 a35.394979561671974,35.394979561671974 0 0,0 -0.25284746668517016,-0.5525173464096179 l 13.140397497543665 -5.8775326615427685" fill="#ffa60f" stroke="none" /><path d="M 79.73907114497094 105.5222062557868 l -22.727845261814426 6.194575292346143 a44.55690372900322,44.55690372900322 0 0,0 -0.19479964119492052,-0.7396859668911757 l 22.83083438381408 -5.803508821082165" fill="#e3ff1b" stroke="none" /><path d="M 79.48165901384964 104.47187691870673 l -21.272761680527594 4.636299397719894 a42.77213038776456,42.77213038776456 0 0,0 -0.15019594322440105,-0.7187419598722643 l 21.349215334576364 -4.27044098656222" fill="#f9ff18" stroke="none" /><path d="M 79.2786578344484 103.40968896794605 l -5.522841891248146 0.9087815315170629 a26.59711232938485,26.59711232938485 0 0,0 -0.07026514787929329,-0.451152654201125 l 5.537628531265707 -0.8138406953844879" fill="#ff2a04" stroke="none" /><line stroke="#e1ed5e" stroke-width="0.3" x1="15.003131293944662" x2="10.003315487706104" y1="100.72959589197737" y2="100.7725132973878" /><path d="M 14.003168132696942 100.73817937305945 a86.0,86.0 0 0,1 10.791469493833604,-42.45332614584628" fill="none" id="id22" stroke="none" /><text fill="#e1ed5e" style="font-size:6.75px; font-family:Arial;" text-anchor="middle"><textPath startOffset="22.145653131862435" xlink:href="#id22">October</textPath></text><path d="M 79.03789590574601 98.7389718711861 l -5.270087280751713 -0.31703536402884336 a26.279614698894786,26.279614698894786 0 0,0 0.030954931893286804,-0.45007791605467473 l 5.263868387693362 0.4074567042378431" fill="#ff2603" stroke="none" /><path d="M 79.2786578344484 96.59031103205396 l -3.0687357684099443 -0.5049593029009402 a24.11000371605964,24.11000371605964 0 0,0 0.07070566567221151,-0.4078114902978469 l 3.0596152852454983 0.5575638261193797" fill="#ff0600" stroke="none" /><path d="M 80.05021161711548 93.44210830539832 l -7.574973823704853 -2.490044353950015 a28.973741236988573,28.973741236988573 0 0,0 0.15937569068867236,-0.4711659103166919 l 7.531112711443815 2.6197119387408687" fill="#ff4d07" stroke="none" /><path d="M 80.16572619554312 93.10060997987247 l -19.856219777785522 -6.907023968859819 a42.02323581112396,42.02323581112396 0 0,0 0.24285394058291804,-0.6793056941732389 l 19.73472566715866 7.246864619413979" fill="#fffc17" stroke="none" /><path d="M 80.68587082218212 91.75594674310238 l -57.94238753345363 -24.732159770692828 a84.0,84.0 0 0,0 0.5774644719320907,-1.3213517208965326 l 57.50928917950456 25.72317356136523" fill="#4dd2ff" stroke="none" /><path d="M 81.29705330413844 90.45014215332179 l -20.718249117897784 -10.578885622968187 a44.26281727424938,44.26281727424938 0 0,0 0.3513454516216198,-0.6737512301187354 l 20.533595597301222 10.932983096191409" fill="#e6ff1a" stroke="none" /><line stroke="#e1ed5e" stroke-width="0.3" x1="26.387840678322718" x2="22.05771365940052" y1="57.49999999999999" y2="54.99999999999999" /><path d="M 25.521815274538284 56.99999999999999 a86.0,86.0 0 0,1 29.574782752854787,-30.34633250058573" fill="none" id="id23" stroke="none" /><text fill="#e1ed5e" style="font-size:6.75px; font-family:Arial;" text-anchor="middle"><textPath startOffset="21.40746469413373" xlink:href="#id23">November</textPath></text><path d="M 81.81346652052679 89.5 l -6.809100826737103 -3.9312361952559707 a28.86247239051194,28.86247239051194 0 0,0 0.25141452337514414,-0.42695682515578787 l 6.740612593232179 4.047544188705332" fill="#ff4b07" stroke="none" /><path d="M 82.37810715431573 88.57770195909679 l -4.43672526876615 -2.8758317162202403 a26.287243059527935,26.287243059527935 0 0,0 0.2486967982894707,-0.37655865025227936 l 4.38670403155595 2.9515702448115806" fill="#ff2603" stroke="none" /><path d="M 83.2033758604659 87.39550010848427 l -14.920599840126014 -11.196696282770695 a39.65449831107177,39.65449831107177 0 0,0 0.413252787827859,-0.5409611648593684 l 14.726195074943849 11.451178360870948" fill="#ffde14" stroke="none" /><path d="M 84.10781606972428 86.27271002978789 l -14.25094954156152 -12.309630794996874 a39.83126584022614,39.83126584022614 0 0,0 0.45140002754751796,-0.5136103689889241 l 14.03753845005541 12.552453441797098" fill="#ffe015" stroke="none" /><path d="M 86.40962598614128 83.9905735841838 l -3.438038174169095 -4.050000324347172 a26.312495563692845,26.312495563692845 0 0,0 0.34685590972767083,-0.2893595362527392 l 3.368007930279515 4.108422044511793" fill="#ff2603" stroke="none" /><path d="M 86.68645165197937 83.75963576809568 l -1.738369710102678 -2.120528391364179 a23.742001077239763,23.742001077239763 0 0,0 0.31740707203142826,-0.25568066916079685 l 1.7017118677160044 2.1500573543183745" fill="#ff0000" stroke="none" /><path d="M 88.72937992617638 82.28071324371311 l -4.171335543333011 -6.558032314537417 a28.772247297506063,28.772247297506063 0 0,0 0.4190278723290956,-0.26150438350079824 l 4.058143542214217 6.628672494879751" fill="#ff4a06" stroke="none" /><line stroke="#e1ed5e" stroke-width="0.3" x1="56.869717070023135" x2="54.33264160355391" y1="26.7553504044142" y2="22.446841604673864" /><path d="M 56.362301976729285 25.89364864446614 a86.0,86.0 0 0,1 42.16139366436587,-11.88097634709845" fill="none" id="id24" stroke="none" /><text fill="#e1ed5e" style="font-size:6.75px; font-family:Arial;" text-anchor="middle"><textPath startOffset="22.145653131862474" xlink:href="#id24">December</textPath></text></svg>