<?xml version="1.0" encoding="utf-8" ?>
<svg baseProfile="full" height="200mm" version="1.1" viewBox="0,0,200,200" width="200mm" xmlns="http://www.w3.org/2000/svg" xmlns:ev="http://www.w3.org/2001/xml-events" xmlns:xlink="http://www.w3.org/1999/xlink"><defs /><rect fill="#1a1a1a" height="200" width="200" x="0" y="0" /><text alignment-baseline="middle" fill="#e1ed5e" style="dominant-baseline: central; font-size:9.0px; font-family:Arial;" text-anchor="middle" x="100.0" y="100.0">2024</text><line stroke="#e1ed5e" stroke-width="0.3" x1="100.0" x2="100.0" y1="15.0" y2="10.0" /><path d="M 100.0 14.0 a86.0,86.0 0 0,1 42.35913384403234,11.155469271406648" fill="none" id="id13" stroke="none" /><text fill="#e1ed5e" style="font-size:6.75px; font-family:Arial;" text-anchor="middle"><textPath startOffset="22.145653131862478" xlink:href="#id13">January</textPath></text><line stroke="#e1ed5e" stroke-width="0.3" x1="143.13028292997686" x2="145.6673583964461" y1="26.7553504044142" y2="22.446841604673864" /><path d="M 143.63769802327073 25.89364864446614 a86.0,86.0 0 0,1 29.32050498858742,28.57503671076993" fill="none" id="id14" stroke="none" /><text fill="#e1ed5e" style="font-size:6.75px; font-family:Arial;" text-anchor="middle"><textPath startOffset="20.669276256404974" xlink:href="#id14">February</textPath></text><line stroke="#e1ed5e" stroke-width="0.3" x1="172.87174338648825" x2="177.1583165268699" y1="56.24261187166439" y2="53.66864786411523" /><path d="M 173.72905801456457 55.72781907015455 a86.0,86.0 0 0,1 12.242430191666344,42.057860355516425" fill="none" id="id15" stroke="none" /><text fill="#e1ed5e" style="font-size:6.75px; font-family:Arial;" text-anchor="middle"><textPath startOffset="22.145653131862474" xlink:href="#id15">March</textPath></text><line stroke="#e1ed5e" stroke-width="0.3" x1="184.99686870605535" x2="189.99668451229388" y1="99.2704041080226" y2="99.22748670261217" /><path d="M 185.99683186730306 99.26182062694052 a86.0,86.0 0 0,1 -10.086455211305974,41.156179273409016" fill="none" id="id16" stroke="none" /><text fill="#e1ed5e" style="font-size:6.75px; font-family:Arial;" text-anchor="middle"><textPath startOffset="21.40746469413373" xlink:href="#id16">April</textPath></text><path d="M 120.05942366710727 106.21446072829308 l 15.812278112795807 4.898684178945219 a37.55370791700305,37.55370791700305 0 0,0 -0.19605768767136117,0.6141479142098999 l -15.725855709347192 -5.169401126846503" fill="#ffaa0f" stroke="none" /><path d="M 119.94978838288452 106.5578916946017 l 59.84936514865356 19.67367508380507 a84.0,84.0 0 0,0 -0.46205831371054007,1.3659933021033581 l -59.50282141337066 -20.698170060382587" fill="#4dd2ff" stroke="none" /><path d="M 119.71291397450082 107.23885506374661 l 9.532066217117372 3.5003067478000958 a31.154429264917116,31.154429264917116 0 0,0 -0.18866130789385185,0.5004465335001865 l -9.470574225409079 -3.663421561494441" fill="#ff4e07" stroke="none" /><path d="M 119.58574465831526 107.57618678355244 l 37.61801040305436 14.55145455080564 a61.33434685511182,61.33434685511182 0 0,0 -0.3882794924288516,0.9787179638580191 l -37.36267223565939 -15.195073531877224" fill="#33ff2f" stroke="none" /><path d="M 119.31412917781788 108.2440532568976 l 24.134510726291584 10.301587502336135 a47.24113780051794,47.24113780051794 0 0,0 -0.3247628415886836,0.7431209372598667 l -23.954114002685934 -10.714370509371847" fill="#d4ff1c" stroke="none" /><path d="M 119.16976305983485 108.57439118712176 l 20.89495530979125 9.346047736967737 a43.889905323086275,43.889905323086275 0 0,0 -0.31353179211922433,0.6851235492600884 l -20.73143905281697 -9.703360268442514" fill="#ffff18" stroke="none" /><path d="M 118.5362547648365 109.86951160357373 l 8.558468510008751 4.556902423923754 a30.69601685941055,30.69601685941055 0 0,0 -0.2516410500301659,0.46299118913335136 l -8.478982110363246 -4.703148446531709" fill="#ff4706" stroke="none" /><line stroke="#e1ed5e" stroke-width="0.3" x1="174.33088141563837" x2="178.70328620479359" y1="141.23008692659167" y2="143.65538615756765" /><path d="M 175.20536237346943 141.71514677278685 a86.0,86.0 0 0,1 -30.301960400862466,31.631185727798858" fill="none" id="id17" stroke="none" /><text fill="#e1ed5e" style="font-size:6.75px; font-family:Arial;" text-anchor="middle"><textPath startOffset="22.145653131862474" xlink:href="#id17">May</textPath></text><path d="M 118.36410011445183 110.18625677009912 l 30.846131423568558 17.109829127833166 a56.273645637837205,56.273645637837205 0 0,0 -0.4758248520900069,0.8407369209863075 l -30.547873206457172 -17.636822818918596" fill="#69ff28" stroke="none" /><path d="M 117.81537515405839 111.11811171558189 l 17.199625191327808 10.73383819816767 a41.27418035794793,41.27418035794793 0 0,0 -0.3802773186621484,0.5978591073206627 l -17.01283018103977 -11.027510980167005" fill="#ffdd14" stroke="none" /><path d="M 117.62189284568427 111.42229804090321 l 27.775308348249425 18.003619299580006 a54.099819663021485,54.099819663021485 0 0,0 -0.511824382182776,0.7749673491840467 l -27.46215952714592 -18.47776652710311" fill="#82ff25" stroke="none" /><path d="M 117.423217284605 111.72311816256416 l 8.222398708165628 5.532396804849112 a30.910360988498272,30.910360988498272 0 0,0 -0.2999928003904423,0.43769846116311256 l -8.126216170959866 -5.672730001082269" fill="#ff4a06" stroke="none" /><path d="M 117.01052211995028 112.31430620078461 l 28.068244332191355 20.3192443352263 a55.651089885402136,55.651089885402136 0 0,0 -0.5668407492593509,0.7690283412882998 l -27.715301563348177 -20.79807898578348" fill="#70ff27" stroke="none" /><path d="M 116.57777611688842 112.89097897827486 l 9.246685381615551 7.190278480820782 a32.71329565828239,32.71329565828239 0 0,0 -0.34852678110025825,0.44035220244851553 l -9.12189216987373 -7.347950627183979" fill="#ff6509" stroke="none" /><path d="M 116.35404254752997 113.17365903436017 l 25.747367550819938 20.740256738422143 a54.061838808098386,54.061838808098386 0 0,0 -0.5883812008285472,0.7177293955657952 l -25.387539530752765 -21.17918841568643" fill="#82ff25" stroke="none" /><path d="M 115.89218393027572 113.72728997021213 l 25.647322530671584 22.153546352264957 a54.89048198202921,54.89048198202921 0 0,0 -0.6220632097954077,0.7077937421787592 l -25.263248256917592 -22.59055237225501" fill="#79ff26" stroke="none" /><path d="M 115.6541949942343 113.99807769240083 l 6.153631439669204 5.5026151785266695 a29.255056250458708,29.255056250458708 0 0,0 -0.3379687575410198,0.37148686794971464 l -6.058264981286305 -5.607439622034056" fill="#ff3204" stroke="none" /><path d="M 115.41159269507618 114.26474011684316 l 3.6962808947635972 3.4212224139235574 a26.03659163110603,26.03659163110603 0 0,0 -0.3064186538580558,0.3254059917867339 l -3.6370064071692814 -3.4841698656547884" fill="#ff0000" stroke="none" /><line stroke="#e1ed5e" stroke-width="0.3" x1="143.1302829299769" x2="145.66735839644613" y1="173.24464959558577" y2="177.55315839532614" /><path d="M 143.63769802327073 174.10635135553383 a86.0,86.0 0 0,1 -40.68552437913181,11.842963189579606" fill="none" id="id18" stroke="none" /><text fill="#e1ed5e" style="font-size:6.75px; font-family:Arial;" text-anchor="middle"><textPath startOffset="21.407464694133747" xlink:href="#id18">June</textPath></text><line stroke="#e1ed5e" stroke-width="0.3" x1="101.45913802915013" x2="101.54496967792366" y1="184.9874750549273" y2="189.98673829345242" /><path d="M 101.47630435890484 185.9873277026323 a86.0,86.0 0 0,1 -42.54439059252881,-10.42667462771756" fill="none" id="id19" stroke="none" /><text fill="#e1ed5e" style="font-size:6.75px; font-family:Arial;" text-anchor="middle"><textPath startOffset="22.145653131862474" xlink:href="#id19">July</textPath></text><line stroke="#e1ed5e" stroke-width="0.3" x1="58.13341422392154" x2="55.67067388415222" y1="173.97424548756322" y2="178.32567169271397" /><path d="M 57.64086615596768 174.84453072859336 a86.0,86.0 0 0,1 -31.369924170532247,-30.572349798747897" fill="none" id="id20" stroke="none" /><text fill="#e1ed5e" style="font-size:6.75px; font-family:Arial;" text-anchor="middle"><textPath startOffset="22.145653131862474" xlink:href="#id20">August</textPath></text><line stroke="#e1ed5e" stroke-width="0.3" x1="26.387840678322732" x2="22.057713659400548" y1="142.50000000000003" y2="145.00000000000006" /><path d="M 25.521815274538298 143.00000000000003 a86.0,86.0 0 0,1 -11.493303480769221,-40.785679425670985" fill="none" id="id21" stroke="none" /><text fill="#e1ed5e" style="font-size:6.75px; font-family:Arial;" text-anchor="middle"><textPath startOffset="21.40746469413373" xlink:href="#id21">September</textPath></text><line stroke="#e1ed5e" stroke-width="0.3" x1="15.003131293944662" x2="10.003315487706104" y1="100.72959589197737" y2="100.7725132973878" /><path d="M 14.003168132696942 100.73817937305945 a86.0,86.0 0 0,1 10.791469493833604,-42.45332614584628" fill="none" id="id22" stroke="none" /><text fill="#e1ed5e" style="font-size:6.75px; font-family:Arial;" text-anchor="middle"><textPath startOffset="22.145653131862435" xlink:href="#id22">October</textPath></text><line stroke="#e1ed5e" stroke-width="0.3" x1="26.387840678322718" x2="22.05771365940052" y1="57.49999999999999" y2="54.99999999999999" /><path d="M 25.521815274538284 56.99999999999999 a86.0,86.0 0 0,1 29.574782752854787,-30.34633250058573" fill="none" id="id23" stroke="none" /><text fill="#e1ed5e" style="font-size:6.75px; font-family:Arial;" text-anchor="middle"><textPath startOffset="21.40746469413373" xlink:href="#id23">November</textPath></text><line stroke="#e1ed5e" stroke-width="0.3" x1="56.869717070023135" x2="54.33264160355391" y1="26.7553504044142" y2="22.446841604673864" /><path d="M 56.362301976729285 25.89364864446614 a86.0,86.0 0 0,1 42.16139366436587,-11.88097634709845" fill="none" id="id24" stroke="none" /><text fill="#e1ed5e" style="font-size:6.75px; font-family:Arial;" text-anchor="middle"><textPath startOffset="22.145653131862474" xlink:href="#id24">December</textPath></text></svg>