<?xml version="1.0" encoding="utf-8" ?>
<svg baseProfile="full" height="200mm" version="1.1" viewBox="0,0,200,200" width="200mm" xmlns="http://www.w3.org/2000/svg" xmlns:ev="http://www.w3.org/2001/xml-events" xmlns:xlink="http://www.w3.org/1999/xlink"><defs /><rect fill="#1a1a1a" height="200" width="200" x="0" y="0" /><text alignment-baseline="middle" fill="#e1ed5e" style="dominant-baseline: central; font-size:9.0px; font-family:Arial;" text-anchor="middle" x="100.0" y="100.0">2023</text><line stroke="#e1ed5e" stroke-width="0.3" x1="100.0" x2="100.0" y1="15.0" y2="10.0" /><path d="M 100.0 14.0 a86.0,86.0 0 0,1 42.46469731375804,11.215312516191453" fill="none" id="id1" stroke="none" /><text fill="#e1ed5e" style="font-size:6.75px; font-family:Arial;" text-anchor="middle"><textPath startOffset="22.20632615414155" xlink:href="#id1">January</textPath></text><line stroke="#e1ed5e" stroke-width="0.3" x1="143.23703022742887" x2="145.7803849466894" y1="26.81831364943548" y2="22.513508569990506" /><path d="M 143.74570117128098 25.957352633546492 a86.0,86.0 0 0,1 28.547481713284135,27.462654790039103" fill="none" id="id2" stroke="none" /><text fill="#e1ed5e" style="font-size:6.75px; font-family:Arial;" text-anchor="middle"><textPath startOffset="19.985693538727396" xlink:href="#id2">February</textPath></text><line stroke="#e1ed5e" stroke-width="0.3" x1="172.23445277983987" x2="176.4835382374775" y1="55.19839476539836" y2="52.563006222186495" /><path d="M 173.08426987136738 54.67131705675599 a86.0,86.0 0 0,1 12.851231095245387,41.99856678651699" fill="none" id="id3" stroke="none" /><text fill="#e1ed5e" style="font-size:6.75px; font-family:Arial;" text-anchor="middle"><textPath startOffset="22.20632615414155" xlink:href="#id3">March</textPath></text><line stroke="#e1ed5e" stroke-width="0.3" x1="184.98032266829074" x2="189.97916517819016" y1="98.17113171792111" y2="98.06355123074" /><path d="M 185.9800911702706 98.14961562048488 a86.0,86.0 0 0,1 -9.607161424134198,41.387399972396054" fill="none" id="id4" stroke="none" /><text fill="#e1ed5e" style="font-size:6.75px; font-family:Arial;" text-anchor="middle"><textPath startOffset="21.466115282336823" xlink:href="#id4">April</textPath></text><line stroke="#e1ed5e" stroke-width="0.3" x1="174.80103733775053" x2="179.2010983576182" y1="140.37084112569926" y2="142.7455964860345" /><path d="M 175.68104954172406 140.8457921977663 a86.0,86.0 0 0,1 -30.038265399797805,32.042727171017184" fill="none" id="id5" stroke="none" /><text fill="#e1ed5e" style="font-size:6.75px; font-family:Arial;" text-anchor="middle"><textPath startOffset="22.206326154141568" xlink:href="#id5">May</textPath></text><line stroke="#e1ed5e" stroke-width="0.3" x1="143.8653032363475" x2="146.44561519142675" y1="172.8068346515853" y2="177.08958963109032" /><path d="M 144.38136562736335 173.6633856474863 a86.0,86.0 0 0,1 -40.68145358897372,12.25698825130547" fill="none" id="id6" stroke="none" /><text fill="#e1ed5e" style="font-size:6.75px; font-family:Arial;" text-anchor="middle"><textPath startOffset="21.466115282336833" xlink:href="#id6">June</textPath></text><line stroke="#e1ed5e" stroke-width="0.3" x1="102.19456741930631" x2="102.32365962044197" y1="184.97166512339345" y2="189.96999836594603" /><path d="M 102.22038585953345 185.97133177190398 a86.0,86.0 0 0,1 -42.740103519485714,-10.115201625700543" fill="none" id="id7" stroke="none" /><text fill="#e1ed5e" style="font-size:6.75px; font-family:Arial;" text-anchor="middle"><textPath startOffset="22.20632615414155" xlink:href="#id7">July</textPath></text><line stroke="#e1ed5e" stroke-width="0.3" x1="58.666819895761336" x2="56.23545636021788" y1="174.27360380694188" y2="178.64263932499728" /><path d="M 58.180547188652646 175.14741091055294 a86.0,86.0 0 0,1 -31.652253787137756,-30.449443065178592" fill="none" id="id8" stroke="none" /><text fill="#e1ed5e" style="font-size:6.75px; font-family:Arial;" text-anchor="middle"><textPath startOffset="22.20632615414155" xlink:href="#id8">August</textPath></text><path d="M 86.79598089348748 116.32954008644616 l -11.836086342216221 14.637804204367491 a39.82440574960591,39.82440574960591 0 0,0 -0.5293419646510311,-0.43561239949031594 l 12.08629843541194 -14.431896686019995" fill="#ffd413" stroke="none" /><path d="M 83.50135304334701 112.99209946851258 l -12.102954594622634 9.530647596094015 a36.40502364556542,36.40502364556542 0 0,0 -0.3834544309244806,-0.49566654214735867 l 12.265215842765183 -9.320903059833404" fill="#ffa60f" stroke="none" /><path d="M 83.28015986056508 112.70617746262583 l -17.178741003628637 13.054917388939197 a42.57637621339086,42.57637621339086 0 0,0 -0.43841246005224527,-0.5873251345802663 l 17.400914730375966 -12.757279374849622" fill="#fff817" stroke="none" /><path d="M 83.06392112726016 112.41649034213515 l -8.242164162264473 6.042647326340266 a31.21992450012445,31.21992450012445 0 0,0 -0.31401328261591166,-0.43613698517567556 l 8.344957237255992 -5.899876735713452" fill="#ff5c08" stroke="none" /><line stroke="#e1ed5e" stroke-width="0.3" x1="26.63291911575756" x2="22.317208475507996" y1="142.92168965132927" y2="145.44649492493687" /><path d="M 25.769776987707644 143.4266507060508 a86.0,86.0 0 0,1 -11.730757126820373,-40.83630448921669" fill="none" id="id9" stroke="none" /><text fill="#e1ed5e" style="font-size:6.75px; font-family:Arial;" text-anchor="middle"><textPath startOffset="21.46611528233685" xlink:href="#id9">September</textPath></text><path d="M 81.18737489456691 109.33194174019688 l -8.780226578650595 4.355402950863687 a30.801117978926406,30.801117978926406 0 0,0 -0.23151696026663632,-0.4769935112077664 l 8.85389679553195 -4.203620483690636" fill="#ff5608" stroke="none" /><path d="M 80.45479744820244 107.68017299344265 l -7.6030967654875825 2.9875923920501157 a29.16901393843856,29.16901393843856 0 0,0 -0.17960573146937012,-0.4688938897300949 l 7.653396776550462 -2.856274935486863" fill="#ff3f05" stroke="none" /><path d="M 80.0844068197444 106.66101706037122 l -11.514502657077797 3.851168174921548 a33.14146892889737,33.14146892889737 0 0,0 -0.17629328057438284,-0.5425749273383983 l 11.579088188668429 -3.6523943476053464" fill="#ff780b" stroke="none" /><path d="M 79.97269907076064 106.31721596034903 l -15.359754258987849 4.844930682109757 a37.10575686551066,37.10575686551066 0 0,0 -0.18689503153656545,-0.6107837767356528 l 15.440876063030545 -4.579819932822057" fill="#ffaf10" stroke="none" /><path d="M 79.86692584326677 105.97154293290107 l -15.464365763132518 4.58678706320403 a37.13025802704721,37.13025802704721 0 0,0 -0.1764701497818167,-0.6143157420991916 l 15.541028549800439 -4.319913845600243" fill="#ffb010" stroke="none" /><path d="M 79.76711848015287 105.62410040840567 l -42.316065342461314 11.762526268994632 a64.92045548826019,64.92045548826019 0 0,0 -0.29001489591056506,-1.0792533158726418 l 42.51226831471365 -11.032382019946452" fill="#34ff5d" stroke="none" /><path d="M 79.58551787078972 104.9243191809786 l -20.055094596911957 4.837628815408712 a41.63030469592633,41.63030469592633 0 0,0 -0.16203988314207476,-0.6980635755983091 l 20.135395045984584 -4.491696582461829" fill="#ffeb16" stroke="none" /><path d="M 79.50377843672027 104.57218783832718 l -5.2835842869789955 1.1786338152677702 a26.413449970961587,26.413449970961587 0 0,0 -0.09517138488841433,-0.44460902601321195 l 5.303089710591851 -1.0875109698383947" fill="#ff1502" stroke="none" /><path d="M 79.35854240842038 103.8639653848113 l -21.114551647804124 3.9525259454645876 a42.48131170662906,42.48131170662906 0 0,0 -0.12836144580397546,-0.7199191562212811 l 21.179459535947288 -3.588488038510093" fill="#fff617" stroke="none" /><path d="M 79.29508885075956 103.50808413554451 l -20.56619700543382 3.484581456216109 a41.85930888575459,41.85930888575459 0 0,0 -0.11425248328477551,-0.7114503224768206 l 20.623131243079886 -3.1300519040460744" fill="#ffee16" stroke="none" /><path d="M 79.23777060512086 103.15116336523772 l -10.628089279659003 1.6130659643322074 a31.749802953621504,31.749802953621504 0 0,0 -0.07735756181704914,-0.5410386071754051 l 10.65428089249265 -1.4298818851764017" fill="#ff6409" stroke="none" /><path d="M 79.18660465613746 102.79330883721812 l -6.97032027756585 0.9354676115017805 a28.03281340745043,28.03281340745043 0 0,0 -0.06006829975714239,-0.4788034507917315 l 6.985390086569841 -0.8153464064226403" fill="#ff2e04" stroke="none" /><path d="M 79.07016306316243 101.71520430193888 l -25.355373944083823 2.0778779403492433 a46.44037272878121,46.44037272878121 0 0,0 -0.058434022114540525,-0.7972858057061364 l 25.387384524862696 -1.6411189981463465" fill="#d6ff1c" stroke="none" /><path d="M 79.0095281055655 100.63252640178507 l -32.834292980061505 0.9894278365100465 a53.84919729527918,53.84919729527918 0 0,0 -0.019944556239302264,-0.9267451578114546 l 32.84645959898582 -0.4240928629084631" fill="#7fff26" stroke="none" /><line stroke="#e1ed5e" stroke-width="0.3" x1="15.007084014347285" x2="10.007500721073583" y1="101.09737516637583" y2="101.16192664675087" /><path d="M 14.007167355692545 101.11028546245083 a86.0,86.0 0 0,1 10.666146001902534,-42.60595125391555" fill="none" id="id10" stroke="none" /><text fill="#e1ed5e" style="font-size:6.75px; font-family:Arial;" text-anchor="middle"><textPath startOffset="22.20632615414155" xlink:href="#id10">October</textPath></text><path d="M 79.00019446554 99.90962569577889 l -14.693047169637337 -0.06323267673431912 a35.693183232390275,35.693183232390275 0 0,0 0.007932372956744763,-0.6143710272815718 l 14.689781789562876 0.31613996207636286" fill="#ff9c0e" stroke="none" /><path d="M 79.01574976396665 99.18683210126434 l -19.8202841862177 -0.768062649976137 a40.83516033352692,40.83516033352692 0 0,0 0.03326391669110482,-0.7021487074145348 l 19.804126661293097 1.109122464013681" fill="#ffe115" stroke="none" /><path d="M 79.03285615573316 98.82574320788736 l -57.1957216379441 -3.2032242975957157 a78.2853490832158,78.2853490832158 0 0,0 0.08693181303018081,-1.3447966706456618 l 57.1321092339095 4.187280032494389" fill="#46fff3" stroke="none" /><path d="M 79.05617556472873 98.46500227214037 l -16.415849697759008 -1.2031370901156502 a37.459880320252225,37.459880320252225 0 0,0 0.052667728691205236,-0.6426796924975765 l 16.392707485248305 1.485530699821005" fill="#ffb410" stroke="none" /><path d="M 79.12142395522702 97.74499172005258 l -10.861086186072072 -1.173060807705165 a31.924251223761722,31.924251223761722 0 0,0 0.06371114759107611,-0.5458382048181829 l 10.839284685477407 1.3598427508482096" fill="#ff6709" stroke="none" /><path d="M 79.16333360222342 97.38593545837743 l -20.499343363605323 -2.5717456713260303 a41.660032771924,41.660032771924 0 0,0 0.09538957405027933,-0.7107631243412169 l 20.452037790497208 2.9242271377319065" fill="#ffec16" stroke="none" /><path d="M 79.26566170972629 96.67025291283419 l -21.062478589690436 -3.382443449637966 a42.33234464448685,42.33234464448685 0 0,0 0.12173197574118653,-0.7184690116765459 l 21.001134752429028 3.7444982496303396" fill="#fff417" stroke="none" /><path d="M 79.32604984820605 96.31383870115002 l -27.467425952005414 -4.897436715282217 a48.90061602920435,48.90061602920435 0 0,0 0.1548851940735402,-0.8274029000362583 l 27.379055034022013 5.369517692781049" fill="#b8ff1f" stroke="none" /><path d="M 79.3925641242962 95.95851677861259 l -22.580683774985864 -4.428472089128533 a44.01083755081723,44.01083755081723 0 0,0 0.15219514334814965,-0.7421575699705828 l 22.50110933572272 4.816505315262519" fill="#f4ff19" stroke="none" /><path d="M 79.46518482838121 95.60439243477599 l -11.214137869197675 -2.400457410663146 a32.46817700987306,32.46817700987306 0 0,0 0.12168703688040046,-0.5454991259047307 l 11.171156445315237 2.593134706117836" fill="#ff6e0a" stroke="none" /><path d="M 79.54389044137918 95.25157060432595 l -32.506935570484046 -7.545759763547906 a54.37123537708455,54.37123537708455 0 0,0 0.21947130329883716,-0.9098502421157417 l 32.3722314669244 8.104195237323045" fill="#79ff26" stroke="none" /><path d="M 79.62865764111835 94.90015583598534 l -18.604716157884294 -4.657579822154839 a40.17885588650128,40.17885588650128 0 0,0 0.17373273789279098,-0.6694631091449463 l 18.521787088121197 4.977139356848649" fill="#ffd814" stroke="none" /><path d="M 79.71946130924805 94.55025226153421 l -3.8839974252548206 -1.0437003921469596 a25.02178399568572,25.02178399568572 0 0,0 0.1153542721339659,-0.4149906920947687 l 3.865456382554494 1.1104023876606708" fill="#ff0000" stroke="none" /><path d="M 79.81627453868168 94.20196356495316 l -20.319157204177692 -5.836940956467604 a42.14090890234796,42.14090890234796 0 0,0 0.20627794883400669,-0.6954666972069027 l 20.215673358231978 6.185837040421046" fill="#fff216" stroke="none" /><path d="M 79.91906864156998 93.8553929516997 l -13.082052861761584 -4.003005278282175 a34.68079523770016,34.68079523770016 0 0,0 0.1795879190789373,-0.569342780304606 l 13.011209458914442 4.227598225013195" fill="#ff8e0d" stroke="none" /><path d="M 80.02781315780177 93.51064311812611 l -13.317863638577949 -4.327236207918013 a35.00323052352111,35.00323052352111 0 0,0 0.19112214945511574,-0.5714309003844478 l 13.24140419535106 4.555840211224782" fill="#ff920d" stroke="none" /><path d="M 80.2630227832202 92.82701384747504 l -38.99242246120342 -14.170969713124517 a62.48765348875799,62.48765348875799 0 0,0 0.3761025083942511,-1.0077677360938135 l 38.74271536430754 14.840060586247672" fill="#31ff3f" stroke="none" /><path d="M 80.38941819471856 92.48833698450439 l -30.37836211298204 -11.636167729300352 a53.530682195304074,53.530682195304074 0 0,0 0.33700483168821493,-0.8576405377723189 l 30.173563731412134 12.157357271968435" fill="#82ff25" stroke="none" /><path d="M 80.52162464483688 92.15188598940014 l -10.605093011937186 -4.272942559792959 a32.43354870156807,32.43354870156807 0 0,0 0.2131012541969833,-0.5160415900778514 l 10.529970070854002 4.454858720324122" fill="#ff6e0a" stroke="none" /><path d="M 80.65960295795068 91.81776055985345 l -19.506875611128613 -8.252670647473781 a42.18076412511408,42.18076412511408 0 0,0 0.2886556033673077,-0.6662569305852964 l 19.361929297918625 8.587226722645678" fill="#fff316" stroke="none" /><path d="M 80.95270993114464 91.15688171328213 l -4.798663133635494 -2.227883628350763 a26.290617481125032,26.290617481125032 0 0,0 0.19410213425186887,-0.40882859695023743 l 4.759602805541874 2.3101546409415326" fill="#ff1302" stroke="none" /><path d="M 81.26839172434947 90.50648371742162 l -41.00793214291512 -20.783558239347908 a66.97397950717664,66.97397950717664 0 0,0 0.5300211246581235,-1.0238321105038568 l 40.64410158509688 21.486363072112102" fill="#37ff76" stroke="none" /><line stroke="#e1ed5e" stroke-width="0.3" x1="26.266209847984243" x2="21.928928074336255" y1="57.711370442889674" y2="55.22380399835377" /><path d="M 25.398753493254645 57.213857153982495 a86.0,86.0 0 0,1 29.58750427330803,-30.492523968695096" fill="none" id="id11" stroke="none" /><text fill="#e1ed5e" style="font-size:6.75px; font-family:Arial;" text-anchor="middle"><textPath startOffset="21.46611528233685" xlink:href="#id11">November</textPath></text><path d="M 81.78341655067845 89.55222093294921 l -15.463616822511684 -8.868866798683325 a38.826391769683894,38.826391769683894 0 0,0 0.3374943901324187,-0.5768873131502279 l 15.30866275790894 9.133733524187443" fill="#ffc612" stroke="none" /><path d="M 82.34701348167596 88.62581576622439 l -7.485456523009991 -4.823034418468257 a29.904702148842613,29.904702148842613 0 0,0 0.2825330249976003,-0.430317180548023 l 7.40132686265447 4.951169662993947" fill="#ff4906" stroke="none" /><path d="M 82.54541684631803 88.32363383020206 l -32.74254901533685 -21.903358462902194 a60.39329420061396,60.39329420061396 0 0,0 0.5854570065197595,-0.8590859154675589 l 32.36066754314835 22.46372240164017" fill="#38ff2e" stroke="none" /><path d="M 82.7489923806493 88.02491185347247 l -3.3907504553404144 -2.353748632052837 a25.127629013523602,25.127629013523602 0 0,0 0.24970566997010954,-0.3531909616326814 l 3.3497321655664267 2.4117660940173047" fill="#ff0200" stroke="none" /><path d="M 83.17141714833178 87.43820079747576 l -19.251016374247193 -14.37003960876165 a45.022898863353525,45.022898863353525 0 0,0 0.46893291534628756,-0.6170607488972366 l 19.000807518676794 14.699285133539913" fill="#e7ff1a" stroke="none" /><path d="M 83.39014120810768 87.1503855733568 l -13.59920991780187 -10.520535191788229 a38.193608437733346,38.193608437733346 0 0,0 0.40675450830908283,-0.5165369189854917 l 13.416101328898817 10.753064504726767" fill="#ffbe11" stroke="none" /><path d="M 83.84228863543731 86.58626213691792 l -17.01189635668974 -14.122861408641908 a43.11017485273376,43.11017485273376 0 0,0 0.47891172589795544,-0.566880426928875 l 16.76627401730466 14.4136007851999" fill="#fffe18" stroke="none" /><path d="M 84.07557802195018 86.31012108654704 l -41.58261881468543 -35.747672176860334 a75.83621297602257,75.83621297602257 0 0,0 0.85950646303509,-0.9825644679645832 l 40.9611204880725 36.45815220102786" fill="#42ffda" stroke="none" /><path d="M 84.31358615837235 86.03803664274999 l -11.371446191091156 -10.121351931798895 a36.22338836804116,36.22338836804116 0 0,0 0.4185635974257129,-0.46218837851757205 l 11.195538953049399 10.315593097586023" fill="#ffa30f" stroke="none" /><path d="M 85.05521093208273 85.24692304244772 l -11.897678876727808 -11.745055168521782 a37.71828590392434,37.71828590392434 0 0,0 0.46009878703044227,-0.4581229766200206 l 11.693744289530052 11.948113995791912" fill="#ffb811" stroke="none" /><path d="M 85.31137513191541 84.99185889309783 l -11.895967278748316 -12.15473586710416 a38.007399610055586,38.007399610055586 0 0,0 0.4715030697684746,-0.45358557954587514 l 11.684980965367414 12.357704533412347" fill="#ffbb11" stroke="none" /><path d="M 85.57189188830299 84.74124197986013 l -13.936417627429238 -14.738760106195418 a41.284348295030284,41.284348295030284 0 0,0 0.520560473866252,-0.4838042277287571 l 13.68064926976813 14.976468919998823" fill="#ffe715" stroke="none" /><path d="M 85.83668400450813 84.49514656593479 l -33.23834612411712 -36.38665445360404 a70.28261636107193,70.28261636107193 0 0,0 0.9002500744826648,-0.808253405594637 l 32.607085062038486 36.953406867967956" fill="#3bff9c" stroke="none" /><path d="M 86.37877921826538 84.01681056812374 l -11.385367965808037 -13.359631700056157 a38.55295880693603,38.55295880693603 0 0,0 0.5087934267270576,-0.42609986276828005 l 11.15371700212187 13.55363272021825" fill="#ffc312" stroke="none" /><path d="M 86.65592168130627 83.78471172551755 l -14.256065750455448 -17.323505624196624 a43.43522359578529,43.43522359578529 0 0,0 0.5814044635888697,-0.47012197558528573 l 13.95575788830208 17.566333697046044" fill="#fbff18" stroke="none" /><path d="M 86.93701828274178 83.55741782278169 l -29.80219623837773 -37.5124968646104 a68.90989795071766,68.90989795071766 0 0,0 0.9350989306305115,-0.729859547650573 l 29.152064752587794 38.0199348014842" fill="#39ff8c" stroke="none" /><path d="M 87.51073957382395 83.11751280151077 l -29.434030573998456 -39.78775583252181 a70.49169293951712,70.49169293951712 0 0,0 0.9816964646815638,-0.713244231183671 l 28.74478879296311 40.28851929852215" fill="#3bff9f" stroke="none" /><path d="M 87.80319425747018 82.90503203632743 l -13.439836627287155 -18.837192411725027 a44.14020368373019,44.14020368373019 0 0,0 0.6223114191993866,-0.43596891845202373 l 13.113594068504108 19.065746172940994" fill="#f2ff19" stroke="none" /><path d="M 88.39885842347998 82.49532879139004 l -25.54996708632051 -38.551703751468715 a67.24969924500124,67.24969924500124 0 0,0 0.9704226846345192,-0.6311899081494023 l 24.882577375901704 38.98579258377765" fill="#37ff79" stroke="none" /><line stroke="#e1ed5e" stroke-width="0.3" x1="56.762969772571076" x2="54.21961505331055" y1="26.818313649435495" y2="22.513508569990535" /><path d="M 56.25429882871897 25.957352633546506 a86.0,86.0 0 0,1 42.265352541879196,-11.944610805530505" fill="none" id="id12" stroke="none" /><text fill="#e1ed5e" style="font-size:6.75px; font-family:Arial;" text-anchor="middle"><textPath startOffset="22.20632615414155" xlink:href="#id12">December</textPath></text><path d="M 89.3179101791058 81.91981866633112 l -11.110707234785348 -18.80564617209048 a42.842622168754666,42.842622168754666 0 0,0 0.6381577240066748,-0.3696621439755879 l 10.785352778313353 18.994112473456116" fill="#fffb17" stroke="none" /><path d="M 89.63071344664047 81.73862282372117 l -18.236153604347482 -32.115736941000286 a57.932070853729364,57.932070853729364 0 0,0 0.8713974120411696,-0.48493171635895405 l 17.680632103234267 32.424884054919424" fill="#52ff2b" stroke="none" /><path d="M 90.58718382345135 81.22770947309562 l -19.005544202982982 -37.903385204653844 a63.401383472994276,63.401383472994276 0 0,0 0.9797890784893786,-0.4807782456374872 l 18.350283857483177 38.224918610426165" fill="#32ff4a" stroke="none" /><path d="M 91.23893434514133 80.91482961587045 l -26.28319696457602 -57.25551115238866 a84.0,84.0 0 0,0 1.3192715261329024,-0.5919186779338843 l 25.293743319976343 57.69945016083907" fill="#4dd2ff" stroke="none" /><path d="M 91.90106846888425 80.62456947434976 l -13.997669008286675 -33.487239933949944 a57.29504065377915,57.29504065377915 0 0,0 0.9132178237813992,-0.3725244798544255 l 13.419167314916896 33.723225299987945" fill="#59ff2a" stroke="none" /><path d="M 92.91201910852362 80.23233633223022 l -16.21843142806308 -45.23156913053685 a69.051351323322,69.051351323322 0 0,0 1.122308040495156,-0.3915512382327231 l 15.43744138350464 45.50404122194178" fill="#39ff8e" stroke="none" /><path d="M 93.25333710446033 80.11325718540243 l -4.298142872537482 -12.669383843538144 a34.37861424541608,34.37861424541608 0 0,0 0.5620366103787215,-0.18529463388414735 l 4.079423439916351 12.741492201681526" fill="#ff8a0c" stroke="none" /><path d="M 93.94186890950719 79.89281104454417 l -1.3589705414353208 -4.510479726069332 a25.71075665809342,25.71075665809342 0 0,0 0.4248516223852902,-0.12402583877283589 l 1.2811287013266093 4.5332038937608665" fill="#ff0b01" stroke="none" /><path d="M 94.63758080256005 79.69619591428918 l -5.9113464218688385 -22.382215043854117 a44.149677466190994,44.149677466190994 0 0,0 0.736439980182423,-0.18773494846866245 l 5.525197553001416 22.48065298849164" fill="#f2ff19" stroke="none" /><path d="M 95.33964822691252 79.52364482259891 l -12.355509695929552 -54.28684727034386 a76.67513274703393,76.67513274703393 0 0,0 1.2894467145766504,-0.28182310856088055 l 11.41922025719938 54.49148387700061" fill="#43ffe3" stroke="none" /><path d="M 96.04723909329186 79.375362276772 l -6.374085221356185 -33.258575868919806 a54.863872065046046,54.863872065046046 0 0,0 0.9290409800722407,-0.16977630082770515 l 5.800649120181051 33.363367651098244" fill="#73ff27" stroke="none" /><path d="M 96.75951476605007 79.25152402106235 l -3.7843748571375646 -24.230942328011807 a45.524682651622,45.524682651622 0 0,0 0.7752875558267515,-0.11425723250294882 l 3.3667183208821645 24.292494044675724" fill="#e1ff1b" stroke="none" /><path d="M 97.47563105711357 79.15227682838746 l -2.9221460701391466 -24.132800599114827 a45.309072430100386,45.309072430100386 0 0,0 0.7750727357134245,-0.08708845275107596 l 2.5063066309160043 24.179525005336505" fill="#e4ff1a" stroke="none" /><path d="M 98.19473922651362 79.07773832637324 l -3.9184721799343767 -45.41354994995255 a66.58228760474572,66.58228760474572 0 0,0 1.1427099841642385,-0.08869628755405548 l 3.1361720064078042 45.474271499695064" fill="#36ff71" stroke="none" /><path d="M 98.91598698831166 79.02799685794201 l -1.7589185864123882 -34.02915437648862 a55.074582054260354,55.074582054260354 0 0,0 0.9471757243439304,-0.040787379127317176 l 1.1729020296791337 34.05438948214013" fill="#71ff27" stroke="none" /></svg>