<?xml version="1.0" encoding="utf-8" ?>
<svg baseProfile="full" height="200mm" version="1.1" viewBox="0,0,200,200" width="200mm" xmlns="http://www.w3.org/2000/svg" xmlns:ev="http://www.w3.org/2001/xml-events" xmlns:xlink="http://www.w3.org/1999/xlink"><defs /><rect fill="#1a1a1a" height="200" width="200" x="0" y="0" /><text alignment-baseline="middle" fill="#e1ed5e" style="dominant-baseline: central; font-size:9.0px; font-family:Arial;" text-anchor="middle" x="100.0" y="100.0">2024</text><line stroke="#e1ed5e" stroke-width="0.3" x1="100.0" x2="100.0" y1="15.0" y2="10.0" /><path d="M 100.0 14.0 a86.0,86.0 0 0,1 42.35913384403234,11.155469271406648" fill="none" id="id13" stroke="none" /><text fill="#e1ed5e" style="font-size:6.75px; font-family:Arial;" text-anchor="middle"><textPath startOffset="22.145653131862478" xlink:href="#id13">January</textPath></text><line stroke="#e1ed5e" stroke-width="0.3" x1="143.13028292997686" x2="145.6673583964461" y1="26.7553504044142" y2="22.446841604673864" /><path d="M 143.63769802327073 25.89364864446614 a86.0,86.0 0 0,1 29.32050498858742,28.57503671076993" fill="none" id="id14" stroke="none" /><text fill="#e1ed5e" style="font-size:6.75px; font-family:Arial;" text-anchor="middle"><textPath startOffset="20.669276256404974" xlink:href="#id14">February</textPath></text><line stroke="#e1ed5e" stroke-width="0.3" x1="172.87174338648825" x2="177.1583165268699" y1="56.24261187166439" y2="53.66864786411523" /><path d="M 173.72905801456457 55.72781907015455 a86.0,86.0 0 0,1 12.242430191666344,42.057860355516425" fill="none" id="id15" stroke="none" /><text fill="#e1ed5e" style="font-size:6.75px; font-family:Arial;" text-anchor="middle"><textPath startOffset="22.145653131862474" xlink:href="#id15">March</textPath></text><line stroke="#e1ed5e" stroke-width="0.3" x1="184.99686870605535" x2="189.99668451229388" y1="99.2704041080226" y2="99.22748670261217" /><path d="M 185.99683186730306 99.26182062694052 a86.0,86.0 0 0,1 -10.086455211305974,41.156179273409016" fill="none" id="id16" stroke="none" /><text fill="#e1ed5e" style="font-size:6.75px; font-family:Arial;" text-anchor="middle"><textPath startOffset="21.40746469413373" xlink:href="#id16">April</textPath></text><path d="M 120.05942366710727 106.21446072829308 l 13.504612935429826 4.183763608106185 a35.13783747481531,35.13783747481531 0 0,0 -0.18344508564400014,0.5746391179986161 l -13.43080313400857 -4.414971759796185" fill="#ff910d" stroke="none" /><path d="M 119.94978838288452 106.5578916946017 l 51.11486814222639 16.802472428637355 a74.8056950973808,74.8056950973808 0 0,0 -0.411483253960007,1.2164771245500976 l -50.81889946669402 -17.677451227661614" fill="#41ffce" stroke="none" /><path d="M 119.71291397450082 107.23885506374661 l 8.140943627400974 2.9894672638005804 a29.67247817327065,29.67247817327065 0 0,0 -0.17968708375360784,0.4766413377662224 l -8.088425859832926 -3.1287768817609614" fill="#ff4206" stroke="none" /><path d="M 119.58574465831526 107.57618678355244 l 32.1279872685213 12.42779566323877 a55.44789791806582,55.44789791806582 0 0,0 -0.3510150961700353,0.8847873423804757 l -31.909913497385144 -12.977484022832812" fill="#6fff28" stroke="none" /><path d="M 119.31412917781788 108.2440532568976 l 20.612287705766846 8.798159939201376 a43.411470785762255,43.411470785762255 0 0,0 -0.2984355006321144,0.6828788289216708 l -20.458218323117766 -9.150700837898892" fill="#feff18" stroke="none" /><path d="M 119.16976305983485 108.57439118712176 l 17.84551737257184 7.982072934934156 a40.54932169241101,40.54932169241101 0 0,0 -0.2896680092119772,0.6329768768806309 l -17.705864898504807 -8.287238794029475" fill="#ffdb14" stroke="none" /><path d="M 118.5362547648365 109.86951160357373 l 7.309434081747079 3.891861943018367 a29.280967092008062,29.280967092008062 0 0,0 -0.24004069774521014,0.44164784750394065 l -7.24154803438653 -4.016764623996911" fill="#ff3c05" stroke="none" /><line stroke="#e1ed5e" stroke-width="0.3" x1="174.33088141563837" x2="178.70328620479359" y1="141.23008692659167" y2="143.65538615756765" /><path d="M 175.20536237346943 141.71514677278685 a86.0,86.0 0 0,1 -30.301960400862466,31.631185727798858" fill="none" id="id17" stroke="none" /><text fill="#e1ed5e" style="font-size:6.75px; font-family:Arial;" text-anchor="middle"><textPath startOffset="22.145653131862474" xlink:href="#id17">May</textPath></text><path d="M 118.36410011445183 110.18625677009912 l 26.34440543349629 14.612797606674224 a51.125762256548015,51.125762256548015 0 0,0 -0.4322966459339169,0.7638267515006542 l -26.089675422541 -15.062881128274" fill="#a0ff22" stroke="none" /><path d="M 117.81537515405839 111.11811171558189 l 14.689488711647847 9.167327385956018 a38.3153391537945,38.3153391537945 0 0,0 -0.3530162031244324,0.5550001057444358 l -14.529954816897524 -9.418141166379126" fill="#ffbd11" stroke="none" /><path d="M 117.62189284568427 111.42229804090321 l 23.72174241621657 15.376146836230511 a49.269187374076566,49.269187374076566 0 0,0 -0.46612302121259575,0.7057696638097767 l -23.45429495608325 -15.781096378379347" fill="#b6ff1f" stroke="none" /><path d="M 117.423217284605 111.72311816256416 l 7.022410759692979 4.724991359356113 a29.46402955003358,29.46402955003358 0 0,0 -0.28595579128921533,0.4172180453833232 l -6.940265231588443 -4.844844139809481" fill="#ff3f05" stroke="none" /><path d="M 117.01052211995028 112.31430620078461 l 23.971926927883732 17.353826433497915 a50.5940631296172,50.5940631296172 0 0,0 -0.515331805927306,0.6991465670793824 l -23.670493102372596 -17.762779309846174" fill="#a6ff21" stroke="none" /><path d="M 116.57777611688842 112.89097897827486 l 7.897211655628805 6.140919549274627 a31.003841504365347,31.003841504365347 0 0,0 -0.3303142915997597,0.41734131691972753 l -7.790630933387484 -6.275580810109037" fill="#ff5607" stroke="none" /><path d="M 116.35404254752997 113.17365903436017 l 21.9897620317399 17.713395719189513 a49.236749496306246,49.236749496306246 0 0,0 -0.5358674146538902,0.6536711150549077 l -21.682447797847384 -18.088269115942914" fill="#b6ff1f" stroke="none" /><path d="M 115.89218393027572 113.72728997021213 l 21.904317716658735 18.92042794215335 a49.94445936870383,49.94445936870383 0 0,0 -0.5660108926819752,0.6440164946856062 l -21.576295760018176 -19.29365671465025" fill="#aeff20" stroke="none" /><path d="M 115.6541949942343 113.99807769240083 l 5.255562174357104 4.6995561037146905 a28.05030221625252,28.05030221625252 0 0,0 -0.3240508480829988,0.3561886473964719 l -5.174113625432225 -4.789082326668834" fill="#ff2a04" stroke="none" /><path d="M 115.41159269507618 114.26474011684316 l 3.1568406796495863 2.9219246041888254 a25.301544660846204,25.301544660846204 0 0,0 -0.29776805525664846,0.3162193558492761 l -3.1062167906566778 -2.975685419982599" fill="#ff0000" stroke="none" /><path d="M 115.16444852881244 114.52719865689866 l 7.72073098031747 7.396285629143636 a31.69180658159839,31.69180658159839 0 0,0 -0.3797179443478988,0.38962406222604934 l -7.5926262348187645 -7.527732383437423" fill="#ff6008" stroke="none" /><path d="M 114.91283532996324 114.78537596483092 l 4.284360441539073 4.247742196262842 a27.03316319677636,27.03316319677636 0 0,0 -0.3295575334676199,0.3267408193377473 l -4.210810987941488 -4.320663025829251" fill="#ff1b02" stroke="none" /><path d="M 114.39649973595853 115.28858382429668 l 6.316089602090174 6.707468280094057 a30.213203492276698,30.213203492276698 0 0,0 -0.38064353129948997,0.3523179698928466 l -6.200016299476717 -6.814903996119283" fill="#ff4a06" stroke="none" /><path d="M 113.86319453409587 115.77377054828091 l 10.685180550033891 12.15777401439897 a37.185936870382804,37.185936870382804 0 0,0 -0.4830993639277832,0.41728972444296675 l -10.474901706343253 -12.339407871306657" fill="#ffad10" stroke="none" /><path d="M 113.31354834802062 116.24036423190432 l 20.819385350189453 25.396264942525146 a53.83926124916051,53.83926124916051 0 0,0 -0.7197776723973389,0.5798019424952542 l -20.380356907436862 -25.749915178813804" fill="#81ff25" stroke="none" /><path d="M 113.03279911837588 116.46651593811092 l 6.174518341213618 7.801302218523149 a30.949120214909335,30.949120214909335 0 0,0 -0.4194196112119976,0.3261432265152899 l -6.03968878536639 -7.906146496659232" fill="#ff5507" stroke="none" /><path d="M 112.16784306229584 117.11559508785304 l 11.655960127828273 16.395567635668275 a41.11656145063802,41.11656145063802 0 0,0 -0.5787741618506862,0.40402931483840127 l -11.372790874803828 -16.5932417663118" fill="#ffe215" stroke="none" /><path d="M 111.5731344415666 117.5232005979908 l 6.1067909541564 9.246459845427381 a32.08106111484218,32.08106111484218 0 0,0 -0.46214199617527213,0.2995548584796177 l -5.9471633257241185 -9.349928545610894" fill="#ff6509" stroke="none" /><line stroke="#e1ed5e" stroke-width="0.3" x1="143.1302829299769" x2="145.66735839644613" y1="173.24464959558577" y2="177.55315839532614" /><path d="M 143.63769802327073 174.10635135553383 a86.0,86.0 0 0,1 -40.68552437913181,11.842963189579606" fill="none" id="id18" stroke="none" /><text fill="#e1ed5e" style="font-size:6.75px; font-family:Arial;" text-anchor="middle"><textPath startOffset="21.407464694133747" xlink:href="#id18">June</textPath></text><path d="M 110.34350942703117 118.27599006163325 l 2.936334073073252 5.188220953023759 a26.961517797179315,26.961517797179315 0 0,0 -0.4047511991282701,0.22450866727095983 l -2.846838685788887 -5.237862535727863" fill="#ff1902" stroke="none" /><path d="M 110.02825361518725 118.45085714620011 l 9.443934418643504 17.375775637802317 a40.776386836803226,40.776386836803226 0 0,0 -0.6178810639659399,0.32898686427253265 l -9.144264538891012 -17.535332969797416" fill="#ffde14" stroke="none" /><path d="M 109.71004243097381 118.62028667847754 l 13.943855693489212 26.739181858554616 a51.15650772330423,51.15650772330423 0 0,0 -0.7821410505786606,0.39936679340108894 l -13.482787421196969 -26.97460660362854" fill="#9fff22" stroke="none" /><path d="M 109.3889696526874 118.78422872680471 l 6.28903327884308 12.582279414063446 a35.06647414372061,35.06647414372061 0 0,0 -0.5407580117124081,0.2645118412580694 l -6.072115017868603 -12.68838500541874" fill="#ff900d" stroke="none" /><path d="M 109.06512990194946 118.94263497670748 l 5.810328190612845 12.141351221672322 a34.46002686366689,34.46002686366689 0 0,0 -0.5357898900608725,0.25077672216601055 l -5.601049586680466 -12.239304175408867" fill="#ff870c" stroke="none" /><path d="M 108.07796709384702 119.3841803445677 l 3.097186980441415 7.432121261728475 a29.051645399597046,29.051645399597046 0 0,0 -0.4619841607748898,0.18788493631451839 l -2.9691483584760845 -7.484193454622284" fill="#ff3905" stroke="none" /><path d="M 107.06938296918513 119.77432235084164 l 5.523329329100874 15.449735157874498 a37.407360644728,37.407360644728 0 0,0 -0.6065233515504808,0.21098030610636226 l -5.257300205505372 -15.542273896549451" fill="#ffb010" stroke="none" /><path d="M 106.72888874123015 119.89276391827305 l 2.1505329578083283 6.357668565095889 a27.711537944929482,27.711537944929482 0 0,0 -0.45193198337858964,0.14855901944634015 l -2.0410782367820044 -6.393648505944248" fill="#ff2503" stroke="none" /><path d="M 106.38641147887787 120.00534299687104 l 3.1481706014079003 9.861599569982097 a31.351914036265953,31.351914036265953 0 0,0 -0.5141107274186563,0.15927281753245776 l -2.97841924111762 -9.9141889753212" fill="#ff5b08" stroke="none" /><path d="M 105.69591212413111 120.21278271476187 l 2.0441783216206733 7.254067714650403 a28.536588314304904,28.536588314304904 0 0,0 -0.47264553188499436,0.12882164147657882 l -1.9193513888009839 -7.288089850271124" fill="#ff3104" stroke="none" /><path d="M 105.3480935250658 120.30758222061773 l 3.0016130012743396 11.397613473317818 a32.7862323707186,32.7862323707186 0 0,0 -0.5454921926386291,0.13866198223811135 l -2.8055155154103133 -11.4474606873912" fill="#ff700a" stroke="none" /><path d="M 104.9986988182912 120.39639698878246 l 4.087250376943948 16.677376315542407 a38.170920080591,38.170920080591 0 0,0 -0.6377594532592459,0.15050949444022274 l -3.800358769944823 -16.745081953628855" fill="#ffbb11" stroke="none" /><path d="M 103.94208987418118 120.62667999033965 l 3.8118341174251555 19.945126830148443 a41.306111484217595,41.306111484217595 0 0,0 -0.6976115731199891,0.12712806728665024 l -3.4688878107541092 -20.007623071366456" fill="#ffe515" stroke="none" /><path d="M 103.2317021107853 120.74984581791261 l 3.1043439644717523 19.93211515800993 a41.17241101410343,41.17241101410343 0 0,0 -0.6992935881110622,0.10277207595507495 l -2.7617252707530042 -19.982468307263886" fill="#ffe315" stroke="none" /><path d="M 102.15924093988457 120.88869738790638 l 0.8268631188194621 7.999150604824857 a29.041773002014775,29.041773002014775 0 0,0 -0.4963383338331609,0.04700375625502064 l -0.6894252216012859 -8.012166116585062" fill="#ff3905" stroke="none" /><path d="M 100.72087961077811 120.9876233191556 l 0.6876290992480635 20.01957095544869 a41.03137676292814,41.03137676292814 0 0,0 -0.7041505662241125,0.018136420791918594 l -0.34386521895320715 -20.028425093590652" fill="#ffe115" stroke="none" /><line stroke="#e1ed5e" stroke-width="0.3" x1="101.45913802915013" x2="101.54496967792366" y1="184.9874750549273" y2="189.98673829345242" /><path d="M 101.47630435890484 185.9873277026323 a86.0,86.0 0 0,1 -42.54439059252881,-10.42667462771756" fill="none" id="id19" stroke="none" /><text fill="#e1ed5e" style="font-size:6.75px; font-family:Arial;" text-anchor="middle"><textPath startOffset="22.145653131862474" xlink:href="#id19">July</textPath></text><path d="M 98.91894614982273 120.97215588758144 l -0.5895337315943189 11.436796897727422 a32.45198119543318,32.45198119543318 0 0,0 -0.5560966056032511,-0.03345339088340114 l 0.7857746893300164 -11.424991529019328" fill="#ff6b09" stroke="none" /><path d="M 97.12497278360702 120.80226474461374 l -1.941077811040872 14.044672093861779 a35.17817327065144,35.17817327065144 0 0,0 -0.5974843445821031,-0.08780962315016627 l 2.18188726123066 -14.00928139741273" fill="#ff910d" stroke="none" /><path d="M 96.76829788921471 120.74984581791261 l -2.1803679922732724 13.999526600856289 a35.16830087306917,35.16830087306917 0 0,0 -0.59572170475949,-0.09802577981947706 l 2.420367200085826 -13.960034822541143" fill="#ff910d" stroke="none" /><path d="M 96.41257539226777 120.69131181640829 l -2.393286842402206 13.803842515747036 a35.00977837474815,35.00977837474815 0 0,0 -0.5912739226475472,-0.10774980507705467 l 2.6298954986008107 -13.760724536738614" fill="#ff8f0d" stroke="none" /><path d="M 95.70440661134978 120.55596938700252 l -7.251100114509426 34.69913897571732 a56.44867696440564,56.44867696440564 0 0,0 -0.9468259789994887,-0.2063563152780076 l 7.845688510128052 -34.56955120230559" fill="#64ff29" stroke="none" /><path d="M 95.35216902796893 120.47920084513623 l -2.735696454336787 12.053983347679182 a33.36052384150437,33.36052384150437 0 0,0 -0.5573873881132266,-0.1315419059075491 l 2.9422159961899017 -12.005245298125406" fill="#ff780b" stroke="none" /><path d="M 94.6519064749342 120.30758222061772 l -4.127693781649516 15.673525614223172 a37.20793821356615,37.20793821356615 0 0,0 -0.6162672830262381,-0.1679663884076799 l 4.396142465610449 -15.600358731671347" fill="#ffae10" stroke="none" /><path d="M 94.30408787586889 120.21278271476187 l -1.595849979815324 5.663108591634892 a26.883666890530556,26.883666890530556 0 0,0 -0.44311962498215496,-0.12898566473769654 l 1.6928296171790858 -5.63487923259468" fill="#ff1802" stroke="none" /><path d="M 93.95794788825049 120.11202640906438 l -18.12615633524852 60.33607922719316 a84.0,84.0 0 0,0 -1.3774374685134654,-0.4267336487734039 l 19.15923443663362 -60.0160289906131" fill="#4dd2ff" stroke="none" /><path d="M 93.61358852112213 120.00534299687104 l -1.8828976757739329 5.8981501515288 a27.19140362659503,27.19140362659503 0 0,0 -0.4434494035024516,-0.1457706269556094 l 1.983869816924128 -5.864958603171169" fill="#ff1d02" stroke="none" /><path d="M 93.27111125876986 119.89276391827306 l -4.524669283592516 13.376380755897728 a35.12091336467428,35.12091336467428 0 0,0 -0.5694508705323069,-0.1980845727873696 l 4.753625926169844 -13.296737750541768" fill="#ff910d" stroke="none" /><path d="M 92.59220618246901 119.65005319985036 l -3.9473740272543902 10.470878583538799 a32.190221625251844,32.190221625251844 0 0,0 -0.515392637470968,-0.19936494406864383 l 4.126538927218887 -10.401573751332114" fill="#ff6709" stroke="none" /><path d="M 92.25597844496254 119.51999308798841 l -7.895781493906495 19.902527270867854 a42.41153794492948,42.41153794492948 0 0,0 -0.6744354233695969,-0.2742870152853504 l 8.236271378466531 -19.764052999003212" fill="#fff316" stroke="none" /><path d="M 91.92203290615298 119.3841803445677 l -9.65471682934447 23.16780571417493 a46.0990194761585,46.0990194761585 0 0,0 -0.7278484727299678,-0.31067523246291884 l 10.051000377244868 -22.998655832052606" fill="#dcff1b" stroke="none" /><path d="M 91.59046798132341 119.24265499422711 l -10.183610056088739 23.30209272880509 a46.43016789791807,46.43016789791807 0 0,0 -0.7275974265889231,-0.3254450742475812 l 10.582120885533298 -23.12384390364765" fill="#d8ff1c" stroke="none" /><line stroke="#e1ed5e" stroke-width="0.3" x1="58.13341422392154" x2="55.67067388415222" y1="173.97424548756322" y2="178.32567169271397" /><path d="M 57.64086615596768 174.84453072859336 a86.0,86.0 0 0,1 -31.369924170532247,-30.572349798747897" fill="none" id="id20" stroke="none" /><text fill="#e1ed5e" style="font-size:6.75px; font-family:Arial;" text-anchor="middle"><textPath startOffset="22.145653131862474" xlink:href="#id20">August</textPath></text><path d="M 89.34428304082925 118.09573695890944 l -12.588201719180466 21.377518562928177 a45.80848891873741,45.80848891873741 0 0,0 -0.6741858760182767,-0.40482924761538924 l 12.95332035175617 -21.15827531477687" fill="#e0ff1b" stroke="none" /><path d="M 89.03521579738668 117.91015095944536 l -12.381443158220273 20.224156897375575 a44.71321692411014,44.71321692411014 0 0,0 -0.6511859834571331,-0.4063882151843479 l 12.726793270467118 -20.008632885349677" fill="#eeff19" stroke="none" /><path d="M 88.72937992617639 117.7192867562869 l -13.72154470774173 21.57254736856742 a46.56668905305574,46.56668905305574 0 0,0 -0.6708139284175993,-0.43481348385633345 l 14.08984426841634 -21.333820043007194" fill="#d6ff1c" stroke="none" /><path d="M 88.1277618465304 117.32195027204791 l -14.480143899095404 21.126962693123424 a46.612948287441235,46.612948287441235 0 0,0 -0.6561436346967169,-0.45803921570099676 l 14.840682624965886 -20.875278661617298" fill="#d6ff1c" stroke="none" /><path d="M 87.83215693770417 117.11559508785305 l -7.273085078780751 10.23050499670314 a33.55233042310276,33.55233042310276 0 0,0 -0.46656750617874837,-0.33775889381333113 l 7.4476335953334525 -10.104145331516744" fill="#ff7a0b" stroke="none" /><path d="M 86.96720088162412 116.46651593811092 l -6.714211016592435 8.483186283495558 a31.818737407656144,31.818737407656144 0 0,0 -0.42538504835560353,-0.3426600835276604 l 6.858846835303301 -8.366677906174486" fill="#ff6209" stroke="none" /><path d="M 86.40962598614128 116.0094264158162 l -9.736877768962048 11.470017528806396 a36.04553391537945,36.04553391537945 0 0,0 -0.4682838721437716,-0.40449245550481044 l 9.932341120868681 -11.301180940836863" fill="#ff9e0e" stroke="none" /><line stroke="#e1ed5e" stroke-width="0.3" x1="26.387840678322732" x2="22.057713659400548" y1="142.50000000000003" y2="145.00000000000006" /><path d="M 25.521815274538298 143.00000000000003 a86.0,86.0 0 0,1 -11.493303480769221,-40.785679425670985" fill="none" id="id21" stroke="none" /><text fill="#e1ed5e" style="font-size:6.75px; font-family:Arial;" text-anchor="middle"><textPath startOffset="21.40746469413373" xlink:href="#id21">September</textPath></text><line stroke="#e1ed5e" stroke-width="0.3" x1="15.003131293944662" x2="10.003315487706104" y1="100.72959589197737" y2="100.7725132973878" /><path d="M 14.003168132696942 100.73817937305945 a86.0,86.0 0 0,1 10.791469493833604,-42.45332614584628" fill="none" id="id22" stroke="none" /><text fill="#e1ed5e" style="font-size:6.75px; font-family:Arial;" text-anchor="middle"><textPath startOffset="22.145653131862435" xlink:href="#id22">October</textPath></text><line stroke="#e1ed5e" stroke-width="0.3" x1="26.387840678322718" x2="22.05771365940052" y1="57.49999999999999" y2="54.99999999999999" /><path d="M 25.521815274538284 56.99999999999999 a86.0,86.0 0 0,1 29.574782752854787,-30.34633250058573" fill="none" id="id23" stroke="none" /><text fill="#e1ed5e" style="font-size:6.75px; font-family:Arial;" text-anchor="middle"><textPath startOffset="21.40746469413373" xlink:href="#id23">November</textPath></text><line stroke="#e1ed5e" stroke-width="0.3" x1="56.869717070023135" x2="54.33264160355391" y1="26.7553504044142" y2="22.446841604673864" /><path d="M 56.362301976729285 25.89364864446614 a86.0,86.0 0 0,1 42.16139366436587,-11.88097634709845" fill="none" id="id24" stroke="none" /><text fill="#e1ed5e" style="font-size:6.75px; font-family:Arial;" text-anchor="middle"><textPath startOffset="22.145653131862474" xlink:href="#id24">December</textPath></text></svg>